<?xml version="1.0" encoding="UTF-8" standalone="no"?>
<!-- Created with Inkscape (http://www.inkscape.org/) -->

<svg
   xmlns:dc="http://purl.org/dc/elements/1.1/"
   xmlns:cc="http://creativecommons.org/ns#"
   xmlns:rdf="http://www.w3.org/1999/02/22-rdf-syntax-ns#"
   xmlns:svg="http://www.w3.org/2000/svg"
   xmlns="http://www.w3.org/2000/svg"
   xmlns:sodipodi="http://sodipodi.sourceforge.net/DTD/sodipodi-0.dtd"
   xmlns:inkscape="http://www.inkscape.org/namespaces/inkscape"
   width="210mm"
   height="297mm"
   viewBox="0 0 744.09448819 1052.3622047"
   id="svg2"
   version="1.1"
   inkscape:version="0.91 r13725"
   sodipodi:docname="PHPIOTLogo.svg">
  <defs
     id="defs4" />
  <sodipodi:namedview
     id="base"
     pagecolor="#ffffff"
     bordercolor="#666666"
     borderopacity="1.0"
     inkscape:pageopacity="0.0"
     inkscape:pageshadow="2"
     inkscape:zoom="0.29556473"
     inkscape:cx="1349.3701"
     inkscape:cy="501.81757"
     inkscape:document-units="px"
     inkscape:current-layer="g3775"
     showgrid="false"
     inkscape:window-width="1366"
     inkscape:window-height="697"
     inkscape:window-x="0"
     inkscape:window-y="24"
     inkscape:window-maximized="1"
     showguides="false" />
  <metadata
     id="metadata7">
    <rdf:RDF>
      <cc:Work
         rdf:about="">
        <dc:format>image/svg+xml</dc:format>
        <dc:type
           rdf:resource="http://purl.org/dc/dcmitype/StillImage" />
        <dc:title></dc:title>
      </cc:Work>
    </rdf:RDF>
  </metadata>
  <g
     inkscape:label="Camada 1"
     inkscape:groupmode="layer"
     id="layer1">
    <path
       style="opacity:1;fill:#0000ff;fill-opacity:0.53365383;stroke:none"
       d=""
       id="path3593"
       inkscape:connector-curvature="0" />
    <g
       id="g3775"
       transform="translate(581.93682,-216.53463)"
       inkscape:export-xdpi="90"
       inkscape:export-ydpi="90">
      <g
         id="g3872"
         transform="translate(-40.600243,-16.916768)">
        <g
           style="fill:#2a2aff"
           id="g3621"
           transform="translate(172.25224,69.379376)">
          <path
             inkscape:connector-curvature="0"
             id="path3609"
             d="m 328.44426,1064.072 c -11.6199,-3.1495 -25.4532,-9.026 -30.7407,-13.059 -10.2698,-7.8332 -20.9893,-25.9147 -20.9893,-35.4047 0,-3.9919 -2.4246,-6.2851 -7.8571,-7.4312 -12.9537,-2.7327 -25.1842,-8.96188 -35.6664,-18.16538 l -9.9036,-8.6954 -1.6722,-57.9381 c -3.0259,-104.8368 -18.229,-157.13043 -50.46284,-173.57483 -14.29898,-7.2948 -21.69433,-7.2727 -41.46397,0.124 -23.69132,8.864 -43.902072,28.848 -56.643422,56.00783 -15.30146,32.617 -18.37353,64.8887 -12.3097,129.3116 6.64502,70.59758 6.49204,73.10898 -5.1636,84.76458 -12.68533,12.6853 -26.54701,13.1877 -44.78253,1.6231 -30.8558,-19.568 -35.955,-34.27548 -39.7498,-114.64948 -6.271899,-132.83883 6.1053,-268.82273 34.7282,-381.54493 20.90666,-82.33455 29.01887,-96.62083 60.72675,-106.94499 35.939592,-11.702 63.810052,-15.18311 133.077412,-16.6218 l 67.1428,-1.39457 24.5942,-12.34418 c 84.3177,-42.32032 126.2017,-49.64476 154.3831,-26.9976 l 11.5298,9.26561 43.6086,-4.98853 c 56.3539,-6.44651 131.4099,-4.78311 177.3129,3.92964 60.2761,11.44085 120.5379,34.63706 169.8808,65.39114 l 21.4587,13.37468 88.616,1.0837 88.61594,1.0838 20.6745,-12.05066 c 21.1938,-12.35334 41.1775,-17.05645 49.2988,-11.60229 5.7329,3.85022 7.7609,45.61295 2.7969,57.59715 -7.6632,18.5006 -19.2122,20.6545 -52.4937,9.7903 -20.9602,-6.8421 -24.8778,-7.1429 -93.03664,-7.1429 l -71.1549,0 11.0107,23.5715 c 16.622,35.5837 20.7689,54.9639 20.6337,96.4285 -0.1206,36.9422 -4.266,63.206 -15.3334,97.1429 -7.9462,24.3662 -23.0118,54.261 -30.9571,61.4286 l -6.3343,5.7143 1.0191,112.85713 c 1.1688,129.42368 1.9031,125.09688 -23.7121,139.72638 -18.8573,10.7698 -45.5265,15.7081 -74.8699,13.8635 -27.021,-1.6986 -39.78,-6.3464 -55.0833,-20.0656 -8.7253,-7.8221 -14.0876,-10.173 -25.6648,-11.2517 -17.9532,-1.6728 -30.4362,-10.03258 -38.9501,-26.08458 -5.2132,-9.829 -6.5855,-18.2214 -7.8779,-48.1782 -0.8607,-19.9517 -2.3756,-37.0865 -3.3663,-38.0772 -0.9907,-0.9907 -21.5237,-0.3229 -45.6289,1.4842 -44.7595,3.3554 -100.0653,0.7935 -122.3801,-5.6691 -18.5662,-5.3768 -18.2171,-5.9478 -16.2287,26.5505 2.2035,36.0129 -2.352,104.44348 -7.8249,117.54188 -11.229,26.8748 -84.0302,43.4408 -132.8067,30.2204 z m 103.2657,-18.8371 c 9.0334,-4.4681 17.0443,-10.107 17.8021,-12.5308 0.7577,-2.4238 2.6655,-19.1947 4.2394,-37.26868 3.1636,-36.3286 0.1972,-92.7253 -6.7606,-128.5312 -2.2864,-11.7662 -3.7894,-21.7608 -3.3401,-22.2102 2.525,-2.525 10.0024,3.5569 10.7536,8.7466 1.276,8.8154 16.3291,17.7352 40.1134,23.7694 16.2211,4.1155 31.0892,5.2329 67.9108,5.1038 46.152,-0.1617 71.441,-3.1669 120.4474,-14.3132 17.415,-3.9609 19.2925,-5.0855 20.0955,-12.0363 0.6203,-5.3702 2.7649,-7.9345 7.1588,-8.5597 5.6967,-0.8106 6.3529,0.5019 7.1428,14.2857 l 0.8698,15.1783 14.2857,1.5564 14.2857,1.5564 -10.7143,2.333 c -12.6076,2.7453 -14.615,10.1406 -2.8571,10.5262 7.6899,0.2523 7.6595,0.3148 -1.4286,2.9388 -7.7913,2.2497 -9.2857,4.0475 -9.2857,11.1709 0,9.6927 1.7082,10.4152 9.0072,3.8097 6.3584,-5.7543 11.5018,-2.3431 16.8928,11.2034 4.7968,12.0533 4.7204,11.99 9.588,7.9502 7.6251,-6.3282 16.5703,-2.3191 23.3023,10.4439 5.3637,10.1688 6.9085,11.4011 9.8497,7.8571 4.7372,-5.7079 15.2474,-5.299 20.4829,0.7969 6.5922,7.6756 8.224,14.2497 10.6519,42.9138 1.2338,14.56688 3.1548,27.39668 4.2688,28.51078 2.9694,2.9693 38.4927,-16.2007 41.933,-22.62908 5.3066,-9.9154 1.895,-196.4314 -3.6735,-200.8329 -0.481,-0.3802 -3.0103,-1.84523 -5.6206,-3.25553 -4.1297,-2.2312 -2.5865,-5.9985 11.8817,-29.0058 33.23,-52.8428 46.5194,-95.5752 46.8668,-150.7013 0.2897,-45.9767 -5.6564,-69.2745 -28.7297,-112.569 l -15.8346,-29.7119 86.7095,1.7615 c 75.34374,1.5305 89.32304,2.5226 106.64774,7.569 10.9659,3.1941 22.2348,5.8075 25.0419,5.8075 7.1027,0 16.4249,-16.476 16.4377,-29.052 0.023,-23.21659 -5.7167,-24.58343 -35.3518,-8.4176 l -20.3517,11.1018 -100.00004,-1.4163 -100,-1.4162 -24.2857,-16.46638 c -45.0838,-30.568 -98.2603,-53.71435 -148.5714,-64.6693 -33.4893,-7.29209 -124.1379,-7.37815 -161.4286,-0.15326 -35.7554,6.92743 -53.5702,13.45685 -51.7629,18.97186 0.7885,2.40601 5.9618,17.23171 11.4961,32.946 16.9707,48.18638 23.5867,101.64078 12.8319,103.67588 -3.7239,0.7046 -4.9384,-3.0131 -6.5106,-19.93 -4.4658,-48.0492 -21.0051,-109.94903 -35.5465,-133.03556 -10.1652,-16.13865 -22.473,-21.69656 -47.6509,-21.51798 -34.1357,0.24212 -87.8602,21.96875 -132.5644,53.61011 -14.5344,10.28736 -27.6176,17.96796 -29.0737,17.06801 -1.4562,-0.89995 -2.6476,-4.92052 -2.6476,-8.93459 l 0,-7.29831 -49.2857,1.3537 c -51.12338,1.40416 -102.354222,9.22759 -120.544442,18.40826 -21.43961,10.82066 -26.07262,18.54406 -41.74695,69.59396 -38.06567,123.9762 -47.58297,200.3419 -44.67107,358.43513 1.7757,96.4077 3.8055,112.9646 16.6509,135.8199 10.0614,17.90198 36.16091,25.86998 46.67673,14.25018 4.70663,-5.2008 4.85366,-8.3227 1.87139,-39.73508 -4.4653,-47.0334 -4.04909,-94.8193 1.0884,-124.9608 10.40057,-61.01973 51.02479,-107.21103 98.210212,-111.66883 40.64963,-3.8402 74.60773,-44.4297 74.60773,-89.177 0,-17.7132 -2.4941,-21.8885 -14.0619,-23.5404 -3.8055,-0.5434 -7.3869,-2.4108 -7.9587,-4.1498 -0.7026,-2.1368 3.4563,-2.7298 12.8298,-1.8291 15.0794,1.4489 23.4765,-3.4212 23.4765,-13.616 0,-2.9379 1.2857,-6.1362 2.8571,-7.1074 5.9548,-3.6802 2.5799,13.3942 -3.9352,19.9093 -5.9322,5.9321 -6.9593,10.1676 -8.1101,33.4416 -1.5099,30.5366 -7.9893,47.8751 -27.5474,73.7151 -6.5097,8.6005 -11.8358,17.0091 -11.8358,18.6857 0,1.6767 5.1966,8.7827 11.5481,15.7912 20.1739,22.2609 34.2425,61.12753 38.4748,106.29283 1.9024,20.3017 2.867,22.7705 13.0996,33.5271 l 11.0459,11.6117 5.8384,-5.8385 c 4.8087,-4.8087 6.9035,-5.2684 11.8772,-2.6065 6.0242,3.224 6.0337,3.1604 3.9432,-26.3264 -1.1526,-16.2571 -3.9183,-33.0831 -6.1461,-37.3912 -2.2278,-4.308 -11.1031,-13.1576 -19.723,-19.6656 -8.6198,-6.5081 -15.6724,-13.7644 -15.6724,-16.1251 0,-2.98413 1.0885,-3.46083 3.5714,-1.5641 1.9643,1.5005 8.9377,6.9372 15.4965,12.0816 6.5588,5.1444 13.3652,8.4634 15.1252,7.3757 7.4942,-4.6317 11.5212,4.7354 11.5212,26.7997 0,27.4592 4.0998,34.5716 19.9283,34.5716 20.4748,0 22.627,4.199 2.9288,5.7143 -13.9683,1.0745 -18.5714,2.4908 -18.5714,5.7143 0,2.9836 4.0867,4.7556 13.4513,5.8323 19.4327,2.2343 20.22,5.5963 1.3106,5.5963 l -16.1905,0 0,22.8571 c 0,12.5714 0.6603,22.8571 1.4673,22.8571 0.8071,0 3.851,-1.4886 6.7644,-3.308 7.576,-4.7313 13.7852,-1.3073 16.0116,8.8293 1.9405,8.8351 5.3565,11.1778 8.6138,5.9073 0.9712,-1.5714 4.327,-2.8571 7.4573,-2.8571 5.3336,0 8.1133,4.4319 15.0526,23.9994 1.8554,5.2318 2.1613,5.206 8.4631,-0.7143 3.596,-3.3782 8.6792,-6.1423 11.296,-6.1423 10.2277,0 21.94,38.16188 21.9952,71.66668 0.011,7.2024 0.7419,13.8156 1.6223,14.696 2.5727,2.5726 27.0236,-4.9065 44.8235,-13.7107 z m -52.9587,-10.5871 c -1.9892,-28.1864 -9.9476,-54.50848 -16.8717,-55.80238 -9.1509,-1.7101 -13.7367,13.7311 -13.7367,46.25408 0,33.3292 -1.0078,31.8639 22.5672,32.8086 l 9.7101,0.3891 -1.6689,-23.6494 z m -38.1733,-14.0989 c -0.2754,-19.8599 -2.0936,-35.47848 -5.2296,-44.92018 -9.3248,-28.0743 -15.4355,-14.6447 -16.4703,36.19728 l -0.7352,36.1243 7.1429,2.0625 c 15.2475,4.4027 15.7483,3.4378 15.2922,-29.4639 z m -29.6461,-12.966 c -0.063,-33.39928 -2.6012,-55.76458 -6.8074,-59.97068 -0.9135,-0.9135 -4.2402,0.6733 -7.3927,3.5263 -5.1571,4.6672 -5.7318,8.7793 -5.7318,41.0166 0,34.99038 0.1798,36.01708 7.6774,43.84288 4.2226,4.4074 8.7226,8.0135 10,8.0135 1.2775,0 2.292,-16.3929 2.2545,-36.4286 z m 506.7376,14.2857 c 0.7109,-1.1785 0.1032,-14.9664 -1.3504,-30.63958 -2.6678,-28.7656 -7.4113,-41.5032 -15.4556,-41.5032 -7.0101,0 -9.8635,12.8652 -9.8635,44.4717 l 0,29.81398 12.6886,0 c 6.9786,0 13.2701,-0.9643 13.9809,-2.1429 z m -34.1999,-20 c -0.637,-10.60708 -1.6338,-26.46998 -2.2152,-35.25098 -1.7588,-26.5643 -13.9819,-42.7099 -21.5824,-28.5082 -1.6267,3.0395 -2.9577,21.7238 -2.9577,41.5206 0,34.65698 0.2389,36.09018 6.4286,38.57818 3.5357,1.4212 9.8162,2.6654 13.9567,2.765 7.5179,0.1809 7.5266,0.1549 6.37,-19.1046 z m -33.9543,-17.14278 c -3.3535,-55.1724 -8.067,-75.1626 -15.8802,-67.3493 -5.3406,5.3406 -8.2142,24.2394 -8.1771,53.7779 l 0.036,28.5714 10.356,7.85708 c 5.6958,4.3215 11.5206,7.8572 12.9441,7.8572 1.5014,0 1.8042,-12.8971 0.7213,-30.71428 z m -468.9219,-11.295 c 2.8866,-34.148 2.1842,-51.6247 -2.5281,-62.9028 -4.1276,-9.8788 -4.6292,-10.1775 -9.2857,-5.5286 -4.1242,4.1175 -5.071,11.8085 -5.8387,47.4292 -0.8451,39.2121 -0.5122,42.604 4.2857,43.6643 9.7159,2.1473 11.5296,-0.9276 13.3668,-22.6621 z m 434.5221,-2.9907 c -2.5871,-37.5427 -4.154,-45.5778 -9.9019,-50.7796 -4.5254,-4.0955 -6.3264,-4.3522 -9.8742,-1.4078 -3.4533,2.866 -4.3394,10.8222 -4.3394,38.9658 l 0,35.3644 12.8208,0 12.8206,0 -1.5259,-22.1428 z m -464.1155,-26.1121 c 0,-34.9333 -0.6586,-40.4908 -5.502,-46.4286 -7.3056,-8.9562 -7.9441,-6.5315 -9.8666,37.472 -1.4682,33.6051 -1.2079,36.0174 4.5465,42.1428 3.3572,3.5735 7.1655,6.4973 8.463,6.4973 1.2975,0 2.3591,-17.8576 2.3591,-39.6835 z m 428.6316,-23.8879 c -1.7306,-5.8929 -4.2742,-10.7143 -5.6524,-10.7143 -3.3507,0 -8.6934,25.6643 -8.6934,41.7598 0,9.6744 1.9679,15.4916 7.8571,23.2255 l 7.8571,10.3183 0.8892,-26.9375 c 0.489,-14.8157 -0.5269,-31.759 -2.2576,-37.6518 z m 27.3306,-6.5289 c 4.0649,2.6634 7.7741,4.4184 8.2425,3.9 1.1439,-1.2658 -3.8373,-36.608 -5.5502,-39.3796 -1.0506,-1.7 -37.7299,4.4959 -40.7675,6.8864 -0.3765,0.2963 -1.5015,4.6236 -2.5,9.6161 -1.5791,7.8952 -1.0334,9.0774 4.19,9.0774 3.3031,0 8.0808,3.1672 10.6173,7.0383 4.3699,6.6693 4.9725,6.8019 11.4944,2.5286 6.3044,-4.1309 7.5038,-4.1029 14.2735,0.3328 z"
             style="opacity:1;fill:#2a2aff;fill-opacity:0.53365383;stroke:none" />
          <g
             style="fill:#2a2aff"
             transform="translate(68.571429,97.142857)"
             id="g3823" />
        </g>
        <g
           style="fill:#2929ff;fill-opacity:0.53333333"
           transform="translate(-40.600278,-20.300121)"
           id="g3828">
          <text
             transform="translate(172.25224,69.37938)"
             xml:space="preserve"
             style="font-style:normal;font-weight:normal;font-size:48.91684341px;line-height:125%;font-family:sans-serif;letter-spacing:0px;word-spacing:0px;fill:#2929ff;fill-opacity:0.53333333;stroke:none;stroke-width:1px;stroke-linecap:butt;stroke-linejoin:miter;stroke-opacity:1"
             x="302.85648"
             y="725.42993"
             id="text3617"
             sodipodi:linespacing="125%"><tspan
               sodipodi:role="line"
               id="tspan3619"
               x="302.85648"
               y="725.42993"
               style="font-style:normal;font-variant:normal;font-weight:normal;font-stretch:normal;font-size:152.86512756px;font-family:Lobster;-inkscape-font-specification:Lobster;fill:#2929ff;fill-opacity:0.53333333">PHP IoT</tspan></text>
          <g
             style="fill:#2929ff;fill-opacity:0.53333333"
             transform="matrix(-0.3034517,0.15942462,0.15942462,0.3034517,706.99971,237.27443)"
             id="g3647">
            <path
               style="opacity:1;fill:#2929ff;fill-opacity:0.53333333;stroke:none"
               d="m -138.42931,1383.6121 c -50.03427,-7.0398 -103.2196,-38.2083 -132.13759,-77.4374 -11.04285,-14.9804 -25.14928,-42.7867 -30.7341,-60.5826 -6.46956,-20.6151 -8.65555,-57.1064 -5.05407,-84.3688 10.3896,-78.6472 72.24218,-145.2923 149.98282,-161.60398 92.911215,-19.4948 184.103245,27.37788 221.598805,113.90178 12.77308,29.4749 15.85013,46.7441 14.69974,82.4989 -0.8737,27.1555 -1.97738,33.9844 -8.69976,53.8288 -20.52668,60.5946 -65.6026105,105.6988 -124.51168,124.5896 -33.53053,10.7525 -56.405655,13.2171 -85.144165,9.1737 z m 69.178685,-15.229 c 30.76205,-7.8034 57.30423,-22.1417 79.92078,-43.1739 41.13577,-38.2541 61.97523,-88.4422 59.60318,-143.5436 -3.46448,-80.4776 -55.32226,-146.4146 -134.34805,-170.8232 -20.62952,-6.3718 -73.548945,-7.118 -95.981585,-1.3534 -30.42652,7.8188 -69.07026,30.5411 -89.34042,52.5316 -23.04701,25.0031 -42.42258,64.35 -48.29585,98.0768 -3.91851,22.5018 -1.58261,60.506 4.90614,79.8211 12.99303,38.6765 27.52104,61.6579 54.68158,86.4988 45.61387,41.7183 108.35731,57.3121 168.854225,41.9658 z"
               id="path3639"
               inkscape:connector-curvature="0" />
            <path
               style="opacity:1;fill:#2929ff;fill-opacity:0.53333333;stroke:none"
               d="m -191.74675,1311.6055 c -2.19895,-2.199 -2.90378,-31.79 -2.90378,-121.9093 l 0,-119.0055 5.31711,-3.7242 c 4.51735,-3.1641 15.81259,-3.7243 75.09531,-3.7243 65.130815,0 70.154385,0.3045 75.426145,4.5721 l 5.64792,4.572 0.59942,114.4495 c 0.46731,89.2266 -0.0753,115.7676 -2.46215,120.4304 l -3.06157,5.981 -75.377315,0.631 c -56.62546,0.4741 -76.09969,-0.091 -78.28109,-2.2727 z m 86.55437,-4.9374 c 5.875095,-9.3722 -10.39455,-18.9085 -16.95424,-9.9376 -4.03451,5.5175 -3.93865,6.9875 0.76226,11.6884 4.75316,4.7531 12.65017,3.8993 16.19198,-1.7508 z m 58.298325,-117.2272 0.62435,-99.8824 -68.209435,0 -68.20943,0 0,98.8856 c 0,54.387 0.7344,99.6199 1.63201,100.5175 0.8976,0.8976 31.31089,1.3462 67.58508,0.9969 l 65.953085,-0.6352 0.62434,-99.8824 z m -52.06078,-113.0405 c 0,-2.8218 -3.322775,-3.5886 -15.550555,-3.5886 -12.22778,0 -15.55055,0.7668 -15.55055,3.5886 0,2.8218 3.32277,3.5886 15.55055,3.5886 12.22778,0 15.550555,-0.7668 15.550555,-3.5886 z"
               id="path3641"
               inkscape:connector-curvature="0" />
            <path
               style="opacity:1;fill:#2929ff;fill-opacity:0.53333333;stroke:none"
               d="m 238.37247,1359.578 c -11.18443,-5.0193 -21.72394,-9.1536 -23.42113,-9.1873 -1.69719,-0.034 -7.56657,-2.3473 -13.04308,-5.1412 -5.4765,-2.7939 -15.39194,-7.0281 -22.03432,-9.4092 -6.64237,-2.3812 -26.99396,-10.2722 -45.22576,-17.5357 -30.93512,-12.3244 -33.23031,-12.8943 -34.37062,-8.5337 -1.824855,6.9783 -3.855435,5.8827 -14.618635,-7.8875 -9.31182,-11.9134 -9.54405,-12.5973 -4.51033,-13.2817 2.91883,-0.3969 10.33192,-1.5795 16.47351,-2.628 10.851195,-1.8526 11.155215,-1.7399 10.765765,3.9915 -0.34052,5.0112 1.57741,6.7329 12.75738,11.4522 27.40365,11.5675 70.08566,28.831 112.44244,45.4793 26.13929,10.274 26.99688,10.8407 25.92077,17.1288 -0.74864,4.3745 -2.12179,4.0855 -21.13599,-4.4475 z"
               id="path3645"
               inkscape:connector-curvature="0" />
          </g>
          <g
             style="fill:#2929ff;fill-opacity:0.53333333"
             transform="matrix(0.27174448,0,0,0.27174448,897.57356,668.59932)"
             id="g3671">
            <path
               style="opacity:1;fill:#2929ff;fill-opacity:0.53333333;stroke:none"
               d="m -162.21757,758.87607 c -2.04834,-2.92441 -3.72425,-7.769 -3.72425,-10.76576 l 0,-5.44866 51.18048,0 c 43.286791,0 51.39286,0.55348 52.557541,3.58859 2.044242,5.3272 58.944656,5.3272 58.944656,0 0,-3.07858 7.3100886,-3.58859 51.436434,-3.58859 l 51.436434,0 0,6.13826 c 0,3.37604 -1.114448,8.22064 -2.476556,10.76577 -2.400599,4.48556 -6.359123,4.6275 -129.053535,4.6275 l -126.576964,0 -3.72424,-5.31711 z"
               id="path3663"
               inkscape:connector-curvature="0" />
            <path
               style="opacity:1;fill:#2929ff;fill-opacity:0.53333333;stroke:none"
               d="m -153.97986,665.94782 c 0,-38.41089 0.95111,-64.13663 2.47657,-66.98699 2.39663,-4.47814 6.24932,-4.6275 119.363654,-4.6275 104.378779,0 117.042493,0.40496 118.339242,3.78425 0.7987,2.08135 1.452158,32.22549 1.452158,66.98699 l 0,63.20273 -120.815811,0 -120.815813,0 0,-62.35948 z m 229.116479,-5.22561 0.643015,-54.42692 -107.70257,0 -107.702564,0 0,55.04965 0,55.04965 107.059552,-0.62272 107.059554,-0.62273 0.643013,-54.42693 z"
               id="path3665"
               inkscape:connector-curvature="0" />
            <path
               style="opacity:1;fill:#2929ff;fill-opacity:0.53333333;stroke:none"
               d="M -55.891773,877.44944 C -124.55519,866.8076 -177.3552,830.33718 -208.22689,772.22741 c -15.80401,-29.74789 -21.0168,-52.96301 -20.87444,-92.96416 0.10467,-29.41264 0.91167,-36.09223 6.62342,-54.82259 16.64988,-54.59944 54.1773,-97.94015 106.33561,-122.80785 26.250611,-12.51559 48.78852,-17.1826 82.978253,-17.1826 34.7075239,0 57.817974,4.81849 84.136083,17.5422 57.901274,27.99288 98.620994,79.55106 109.773794,138.99257 4.9112,26.17544 3.62847,74.19331 -2.5162,94.19109 -21.65481,70.47543 -81.227983,125.30444 -151.0988047,139.06596 -22.0668113,4.34619 -47.3670423,5.6338 -63.0225983,3.20741 z M -7.8262294,866.89865 C 28.414887,862.28732 55.924958,850.50359 85.713663,826.83161 134.88151,787.75973 162.25057,721.37914 154.59458,659.76875 144.67671,579.95609 86.24219,515.42534 6.3104262,496.01465 c -17.0821862,-4.14825 -62.1389732,-4.10377 -78.9489452,0.0779 -37.245841,9.2654 -66.260521,25.71214 -93.301881,52.88743 -31.95182,32.11006 -47.41189,63.74275 -52.78684,108.00663 -5.21961,42.98456 1.98665,80.86783 22.23898,116.91037 27.93588,49.71674 80.87078,85.83157 135.88907,92.71032 25.183405,3.1486 30.103807,3.17576 52.7729606,0.29132 z"
               id="path3667"
               inkscape:connector-curvature="0" />
            <path
               style="opacity:1;fill:#2929ff;fill-opacity:0.53333333;stroke:none"
               d="m -256.9369,565.7819 c 1.36211,-2.54513 2.47657,-5.07009 2.47657,-5.61102 0,-1.28982 -39.87324,-25.64736 -41.98467,-25.64736 -0.89307,0 -9.57537,-4.95602 -19.29402,-11.01339 -12.32399,-7.6812 -17.67026,-12.44902 -17.67026,-15.75837 0,-4.26481 1.87625,-3.71556 18.54104,5.42765 10.19757,5.59494 21.77077,11.90032 25.71822,14.01194 3.94745,2.11163 13.77746,7.85494 21.84448,12.76292 16.46917,10.01986 18.19095,10.42442 22.46222,5.27785 2.59641,-3.12848 4.16548,-1.7537 11.0587,9.68938 4.41815,7.33432 8.03299,13.81951 8.03299,14.41152 0,0.59201 -7.57391,1.07639 -16.83092,1.07639 -15.89888,0 -16.69377,-0.25626 -14.35435,-4.62751 z"
               id="path3669"
               inkscape:connector-curvature="0" />
          </g>
          <g
             style="fill:#2929ff;fill-opacity:0.53333333"
             transform="matrix(0.33116249,-0.19534179,0.19534179,0.33116249,446.4395,296.87047)"
             id="g3733">
            <path
               style="opacity:1;fill:#2929ff;fill-opacity:0.53333333;stroke:none"
               d="m -209.04303,806.25274 c -0.22178,-16.42148 -6.85981,-32.0956 -24.50025,-57.85145 -8.72893,-12.74465 -17.52586,-29.31856 -19.54873,-36.83092 -8.77571,-32.59051 7.57118,-69.46039 38.71654,-87.32395 14.67156,-8.41494 20.94728,-9.92898 41.00616,-9.89294 15.62433,0.0281 28.2887,2.13993 37.21689,6.20614 19.68982,8.96742 37.624289,30.52051 44.190188,53.10641 7.076589,24.34261 2.876064,41.44737 -17.480368,71.18098 -19.43458,28.38713 -23.74684,37.56132 -26.47779,56.3307 l -2.33832,16.07093 -35.31791,0 -35.3179,0 -0.14851,-10.9959 z"
               id="path3719"
               inkscape:connector-curvature="0" />
            <path
               style="opacity:1;fill:#2929ff;fill-opacity:0.53333333;stroke:none"
               d="m -187.48058,934.03014 c -0.81724,-0.98472 -3.1016,-1.26876 -10.20371,-1.26876 -5.18809,0 -9.37711,-0.36628 -9.67349,-0.84584 -0.28752,-0.46521 -2.93364,-0.84584 -5.88029,-0.84584 -3.98197,0 -5.48254,-0.32575 -5.84441,-1.26875 -0.33234,-0.86609 -1.68746,-1.26876 -4.26976,-1.26876 -2.0806,0 -4.01814,-0.38063 -4.30566,-0.84584 -0.28752,-0.46521 -1.56943,-0.84584 -2.84869,-0.84584 -1.27926,0 -3.06478,-0.55883 -3.96781,-1.24186 -0.90304,-0.68301 -2.50346,-1.25395 -3.5565,-1.26875 -1.05303,-0.0148 -2.57554,-0.36106 -3.38335,-0.76948 -3.9226,-1.98321 -8.03312,-3.48661 -9.53291,-3.48661 -0.91463,0 -1.66297,-0.35039 -1.66297,-0.77863 0,-0.42825 -1.13752,-1.02848 -2.52782,-1.33384 -1.3903,-0.30536 -2.74495,-0.90654 -3.01035,-1.33597 -0.2654,-0.42941 -1.18961,-0.78076 -2.05381,-0.78076 -0.8642,0 -1.69815,-0.28547 -1.85322,-0.63438 -0.40854,-0.91923 -5.70581,-3.59481 -7.1172,-3.59481 -0.66012,0 -1.20021,-0.37338 -1.20021,-0.82972 0,-0.45635 -0.95157,-1.06855 -2.1146,-1.36046 -1.16302,-0.2919 -2.11459,-0.87009 -2.11459,-1.28487 0,-0.41477 -0.58755,-0.75414 -1.30567,-0.75414 -0.71813,0 -2.3319,-0.95157 -3.58618,-2.1146 -1.25427,-1.16302 -2.74056,-2.11459 -3.30285,-2.11459 -0.5623,0 -2.04912,-0.95157 -3.30405,-2.1146 -1.25493,-1.16303 -2.79705,-2.11459 -3.42693,-2.11459 -0.62989,0 -1.14525,-0.31736 -1.14525,-0.70525 0,-0.38788 -2.07827,-2.1366 -4.61838,-3.88604 -2.54011,-1.74944 -5.96638,-4.45213 -7.61393,-6.00597 -1.64755,-1.55385 -4.78981,-4.2775 -6.98278,-6.05256 -4.35551,-3.52549 -8.09216,-7.26348 -10.97898,-10.98293 -1.02217,-1.31699 -3.78172,-4.48175 -6.13233,-7.03282 -2.35061,-2.55106 -4.27384,-4.87175 -4.27384,-5.15706 0,-0.28533 -0.78433,-1.43342 -1.74294,-2.55133 -0.95862,-1.11791 -2.48113,-2.89186 -3.38336,-3.94213 -0.90222,-1.05026 -1.64041,-2.19604 -1.64041,-2.54616 0,-0.35012 -0.95157,-1.66281 -2.1146,-2.91708 -1.16303,-1.25428 -2.11459,-2.77679 -2.11459,-3.38335 0,-0.60658 -0.95157,-2.12909 -2.1146,-3.38336 -1.16303,-1.25427 -2.1146,-2.82144 -2.1146,-3.4826 0,-0.66116 -0.57094,-1.67595 -1.26875,-2.25508 -0.69782,-0.57914 -1.26876,-1.57731 -1.26876,-2.21816 0,-0.64086 -0.38063,-1.1652 -0.84584,-1.1652 -0.46521,0 -0.84584,-0.71465 -0.84584,-1.58811 0,-0.87345 -0.57094,-2.06194 -1.26876,-2.64108 -0.69781,-0.57914 -1.26875,-1.44941 -1.26875,-1.93395 0,-1.50011 -2.82437,-7.37027 -3.54614,-7.37027 -0.37568,0 -0.68305,-0.95157 -0.68305,-2.1146 0,-1.16303 -0.38063,-2.11459 -0.84584,-2.11459 -0.46521,0 -0.84584,-0.92439 -0.84584,-2.05418 0,-1.1298 -0.57094,-2.62512 -1.26876,-3.32294 -0.69782,-0.69781 -1.26876,-2.22505 -1.26876,-3.39385 0,-1.1688 -0.38062,-2.36033 -0.84584,-2.64785 -0.46521,-0.28752 -0.84583,-1.37912 -0.84583,-2.42577 0,-1.04666 -0.55884,-2.64186 -1.24186,-3.5449 -0.68302,-0.90303 -1.25396,-2.85645 -1.26876,-4.34093 -0.0148,-1.48448 -0.40753,-2.9343 -0.87274,-3.22182 -0.46521,-0.28751 -0.84584,-1.95005 -0.84584,-3.69453 0,-1.74447 -0.55883,-3.91061 -1.24185,-4.81364 -0.74422,-0.98395 -1.25264,-3.57083 -1.26876,-6.45554 -0.0148,-2.6475 -0.34878,-5.01258 -0.74219,-5.25572 -0.3934,-0.24314 -0.97445,-5.30892 -1.29121,-11.25728 -0.31676,-5.94836 -0.94645,-10.94208 -1.39931,-11.09715 -1.08685,-0.37217 -1.06824,-15.62871 0.0204,-16.71734 0.46407,-0.46407 1.09427,-5.50251 1.40043,-11.19653 0.30617,-5.69401 0.87804,-10.55138 1.27083,-10.79413 0.39279,-0.24276 0.71416,-2.86128 0.71416,-5.81892 0,-3.23669 0.37944,-5.50403 0.95312,-5.69525 0.52421,-0.17474 1.14358,-2.29991 1.37637,-4.7226 0.23279,-2.42269 0.75546,-4.40489 1.16148,-4.40489 0.40602,0 0.73822,-1.35938 0.73822,-3.02086 0,-1.66146 0.57094,-3.59179 1.26876,-4.28961 0.69782,-0.69781 1.26876,-2.36099 1.26876,-3.69593 0,-1.33495 0.38062,-2.66242 0.84583,-2.94994 0.46522,-0.28752 0.84584,-1.2307 0.84584,-2.09597 0,-0.86527 0.63535,-2.84109 1.41187,-4.39073 2.61153,-5.21154 2.81733,-5.74972 2.81733,-7.36766 0,-0.88696 0.57094,-1.83174 1.26875,-2.09953 0.69782,-0.26777 1.26876,-1.2376 1.26876,-2.15517 0,-0.91757 0.38063,-1.90354 0.84584,-2.19106 0.46521,-0.28752 0.84584,-1.26155 0.84584,-2.16452 0,-0.90296 0.3093,-1.64175 0.68734,-1.64175 0.37803,0 1.52131,-1.80798 2.54061,-4.01773 1.95609,-4.24064 2.86792,-5.82676 5.71349,-9.93861 0.96584,-1.39563 1.98633,-3.10845 2.26776,-3.80627 0.45896,-1.13803 9.33956,-13.27628 11.57701,-15.82377 0.49349,-0.56188 0.89726,-1.15238 0.89726,-1.31222 0,-1.18876 15.37016,-17.10051 22.83764,-23.64236 8.61625,-7.54821 9.12251,-7.95355 14.21955,-11.38481 2.6465,-1.78159 5.00213,-3.46968 5.23473,-3.75131 0.77471,-0.93799 14.34873,-9.21509 15.11228,-9.21509 0.41333,0 1.22535,-0.57094 1.80449,-1.26875 0.57914,-0.69782 1.76763,-1.26876 2.64108,-1.26876 0.87346,0 1.58811,-0.38063 1.58811,-0.84584 0,-0.46521 0.71465,-0.84584 1.58812,-0.84584 0.87345,0 2.06194,-0.57094 2.64107,-1.26876 0.57914,-0.69781 1.76763,-1.26875 2.64108,-1.26875 0.87347,0 1.58812,-0.38063 1.58812,-0.84584 0,-0.46521 0.7304,-0.84584 1.62313,-0.84584 0.89272,0 2.89101,-0.63534 4.44065,-1.41187 5.19745,-2.60447 5.74871,-2.81732 7.29649,-2.81732 0.84782,0 2.28034,-0.55884 3.18337,-1.24186 0.90303,-0.68302 2.47583,-1.25396 3.4951,-1.26876 1.01927,-0.0148 2.08846,-0.40752 2.37597,-0.87274 0.28752,-0.46521 1.8053,-0.84583 3.37286,-0.84583 1.56755,0 3.42104,-0.57095 4.11885,-1.26876 0.70618,-0.70618 2.77364,-1.26876 4.66261,-1.26876 1.86662,0 3.59638,-0.32769 3.84391,-0.7282 0.24753,-0.40052 2.96951,-0.93045 6.04882,-1.17763 3.07932,-0.24717 6.0204,-0.87105 6.53574,-1.38639 0.56909,-0.56909 4.50401,-0.93697 10.02211,-0.93697 5.14436,0 9.31188,-0.36689 9.60789,-0.84584 0.69908,-1.13113 20.72304,-1.13113 20.72304,0 0,0.51438 3.8947,0.85638 9.93861,0.87274 7.39603,0.02 10.35863,0.3446 11.58048,1.26876 0.96486,0.72979 3.49347,1.24185 6.13233,1.24185 2.46974,0 4.49044,0.38063 4.49044,0.84584 0,0.46521 1.61767,0.85795 3.59482,0.87274 1.97714,0.0148 4.33366,0.58574 5.23669,1.26876 0.90304,0.68302 2.68855,1.24186 3.96781,1.24186 1.27927,0 2.56118,0.38062 2.84869,0.84583 0.28752,0.46522 1.56943,0.84584 2.8487,0.84584 1.27926,0 3.06477,0.55884 3.96781,1.24186 0.90303,0.68302 2.47582,1.25396 3.49509,1.26876 1.01927,0.0148 2.08846,0.40753 2.37598,0.87274 0.28752,0.46521 1.40526,0.84583 2.48386,0.84583 1.07862,0 2.43495,0.57095 3.01409,1.26876 0.579137,0.69782 1.767625,1.26876 2.64108,1.26876 0.873463,0 1.588112,0.38063 1.588112,0.84584 0,0.46521 0.714649,0.84584 1.588113,0.84584 0.873455,0 2.061942,0.57094 2.641079,1.26875 0.579137,0.69782 1.767625,1.26876 2.64108,1.26876 0.873463,0 1.588112,0.38063 1.588112,0.84584 0,0.46521 0.714649,0.84584 1.588113,0.84584 0.873455,0 2.061942,0.57094 2.641079,1.26876 0.579137,0.69781 1.767625,1.26875 2.64108,1.26875 0.873463,0 1.588112,0.37338 1.588112,0.82973 0,0.45635 0.951569,1.06855 2.114596,1.36045 1.163028,0.2919 2.114596,0.87009 2.114596,1.28487 0,0.41478 0.570941,0.75415 1.268758,0.75415 0.697817,0 1.268758,0.38062 1.268758,0.84583 0,0.46522 0.369496,0.84584 0.821106,0.84584 0.970126,0 8.778847,5.21177 9.187979,6.13233 0.155076,0.34891 0.647472,0.63438 1.094218,0.63438 0.446747,0 1.838489,0.95157 3.092766,2.1146 1.254269,1.16302 2.535595,2.11459 2.847388,2.11459 0.311793,0 2.980075,2.28319 5.929514,5.07376 2.949438,2.79057 5.622101,5.07433 5.939257,5.07503 0.846295,0.002 9.885153,9.15322 13.793527,13.96521 1.855845,2.28491 4.425079,5.22936 5.709409,6.54321 1.284321,1.31385 2.33514,2.66505 2.33514,3.00268 0,0.33762 0.951568,1.64008 2.114596,2.89435 1.163028,1.25427 2.114596,2.67774 2.114596,3.16325 0,0.48552 0.294073,0.88276 0.653495,0.88276 0.359413,0 1.370926,1.33219 2.24779,2.96043 0.876864,1.62824 1.873726,2.96043 2.215242,2.96043 0.341524,0 0.859778,0.95157 1.151677,2.1146 0.291907,1.16303 0.904108,2.1146 1.3604548,2.1146 0.4563467,0 0.8297251,0.57094 0.8297251,1.26875 0,0.69782 0.3393673,1.26876 0.7541411,1.26876 0.4147822,0 0.992972,0.95157 1.2848708,2.1146 0.2919073,1.16303 0.9041083,2.11459 1.360455,2.11459 0.4563467,0 0.8297252,0.63017 0.8297252,1.40038 0,0.77021 0.9515682,2.64795 2.114596,4.17276 1.1630278,1.52481 2.114596,3.34625 2.114596,4.04765 0,0.7014 0.35134436,1.49241 0.7807596,1.75781 0.4294237,0.2654 1.0306033,1.62005 1.3359679,3.01036 0.3053561,1.39029 0.9055885,2.52781 1.3338364,2.52781 0.4282396,0 0.7786281,0.57611 0.7786281,1.28024 0,1.29031 0.2446503,1.90124 2.8173186,7.03523 0.7765304,1.54964 1.4118734,3.52547 1.4118734,4.39073 0,0.86527 0.3475043,1.78799 0.7722421,2.05048 0.4247293,0.2625 1.0291231,1.99779 1.3431069,3.8562 0.313975,1.85841 0.918031,3.37892 1.342354,3.37892 0.424315,0 0.78498,1.23704 0.801466,2.74898 0.01649,1.51193 0.573935,3.70054 1.238781,4.86357 0.664846,1.16302 1.222304,3.54194 1.238781,5.28649 0.01649,1.74454 0.410604,3.17189 0.875815,3.17189 0.466666,0 0.845838,2.19918 0.845838,4.90586 0,2.79704 0.454486,5.36025 1.057298,5.96293 1.770069,1.76967 3.95964,41.12378 2.376129,42.70729 -0.502656,0.50266 -0.895912,4.36071 -0.895912,8.78938 0,5.10293 -0.448539,8.96696 -1.268757,10.93002 -0.697817,1.67012 -1.268758,4.87076 -1.268758,7.11255 0,2.24178 -0.380627,4.31121 -0.845838,4.59873 -0.465211,0.28752 -0.848182,1.73733 -0.851049,3.22182 -0.0025,1.48448 -0.573808,3.78928 -1.268758,5.12179 -0.694949,1.33251 -1.263547,3.49865 -1.263547,4.81365 0,1.315 -0.380627,2.62615 -0.845838,2.91367 -0.465211,0.28752 -0.848182,1.16639 -0.851049,1.95306 -0.0025,0.78666 -0.5738084,2.52053 -1.2687577,3.85304 -0.6949493,1.3325 -1.2635473,2.95533 -1.2635473,3.60629 0,0.65095 -0.362188,1.84448 -0.8048659,2.65228 -0.4426696,0.80781 -1.3569955,2.80094 -2.0318308,4.42918 -4.66994147,11.26759 -8.2982161,18.60844 -9.1973846,18.60844 -0.3594221,0 -0.6534947,0.71465 -0.6534947,1.58812 0,0.87345 -0.5709409,2.06194 -1.2687576,2.64108 -0.6978167,0.57913 -1.2687576,1.57731 -1.2687576,2.21816 0,0.64085 -0.2854705,1.16955 -0.6343788,1.17489 -0.3489084,0.005 -1.3617153,1.52785 -2.250675,3.38335 -0.888967,1.85551 -1.935692,3.37366 -2.326055,3.37366 -0.390371,0 -0.70976,0.39669 -0.70976,0.88154 0,0.48484 -0.379536,1.34125 -0.843419,1.90313 -0.463884,0.56188 -2.346483,3.11505 -4.183568,5.67371 -1.837076,2.55866 -4.312245,5.67456 -5.500369,6.92423 -1.188115,1.24966 -2.16022,2.44426 -2.16022,2.65468 0,1.73236 -17.372379,18.88408 -27.912668,27.55811 -1.163027,0.95711 -2.574317,2.12787 -3.136191,2.6017 -0.561882,0.47384 -1.279491,0.86152 -1.594684,0.86152 -0.315202,0 -1.454969,0.95157 -2.532829,2.1146 -1.077861,1.16303 -2.457592,2.1146 -3.066072,2.1146 -0.608479,0 -2.132553,0.95156 -3.386821,2.11459 -1.254277,1.16303 -2.546659,2.1146 -2.87196,2.1146 -0.325292,0 -1.839022,0.95157 -3.363832,2.11459 -1.524809,1.16303 -3.368712,2.1146 -4.097571,2.1146 -0.728859,0 -1.325192,0.37338 -1.325192,0.82972 0,0.45635 -0.951568,1.06855 -2.114596,1.36046 -1.163027,0.2919 -2.114596,0.87009 -2.114596,1.28487 0,0.41477 -0.540093,0.75414 -1.200211,0.75414 -1.411391,0 -6.708657,2.67558 -7.117197,3.59481 -0.155076,0.34891 -0.693274,0.63438 -1.195998,0.63438 -1.525106,0 -7.403362,2.81563 -7.403362,3.54614 0,0.37568 -0.95674,0.68306 -2.12607,0.68306 -1.16934,0 -2.78701,0.36218 -3.59482,0.80486 -2.59967,1.42461 -7.33007,3.2584 -9.5042,3.68441 -2.39791,0.46985 -7.31163,2.14322 -9.50421,3.23665 -0.8078,0.40285 -2.94981,0.73246 -4.76,0.73246 -1.89368,0 -3.73839,0.53876 -4.34424,1.26876 -0.7152,0.86176 -2.63169,1.26875 -5.97452,1.26875 -2.70684,0 -5.15678,0.38063 -5.44429,0.84584 -0.29869,0.48328 -4.62638,0.84584 -10.09641,0.84584 -7.47804,0 -9.80415,0.27772 -10.62664,1.26876 -0.82184,0.99026 -3.14263,1.26876 -10.57298,1.26876 -7.43034,0 -9.75113,-0.2785 -10.57298,-1.26876 z m 37.00603,-11.20736 c 0.23588,-0.70885 2.26347,-1.0573 6.1523,-1.0573 3.19025,0 6.0047,-0.33046 6.25432,-0.73435 0.24961,-0.40389 2.34989,-0.98586 4.66727,-1.29327 2.31738,-0.30742 4.44183,-0.92853 4.72101,-1.38025 0.27918,-0.45173 1.72218,-0.83481 3.20666,-0.8513 1.48448,-0.0165 3.65062,-0.57393 4.81365,-1.23878 1.16303,-0.66484 2.97101,-1.2223 4.01773,-1.23878 1.04673,-0.0165 1.90314,-0.4106 1.90314,-0.87581 0,-0.46521 1.09527,-0.84584 2.43395,-0.84584 1.33866,0 2.90778,-0.57094 3.48692,-1.26876 0.57913,-0.69782 1.95793,-1.26876 3.064,-1.26876 1.10606,0 2.01103,-0.38062 2.01103,-0.84584 0,-0.46521 0.57373,-0.84583 1.27495,-0.84583 0.70123,0 3.08015,-0.92167 5.286494,-2.04814 2.206344,-1.12648 4.582474,-2.28006 5.28029,-2.56352 0.697817,-0.28345 3.171894,-1.62704 5.49795,-2.98576 2.326056,-1.35871 5.656544,-3.25789 7.401086,-4.22038 1.744542,-0.9625 3.171894,-2.12289 3.171894,-2.57864 0,-0.45577 0.705674,-0.82865 1.568167,-0.82865 0.862485,0 2.494082,-0.85642 3.625754,-1.90314 1.131673,-1.04673 3.115511,-2.59447 4.408527,-3.43943 2.672131,-1.74619 5.163784,-3.70993 7.441433,-5.86479 0.860513,-0.81412 1.796383,-1.48022 2.079722,-1.48022 1.06941,0 18.310904,-16.90385 21.47664,-21.05606 1.163028,-1.52544 2.590381,-3.2844 3.171894,-3.90881 0.581514,-0.62441 1.057298,-1.50238 1.057298,-1.95105 0,-0.44866 0.553103,-1.028 1.229122,-1.28742 0.676019,-0.25941 2.293685,-2.10811 3.594813,-4.10822 1.301128,-2.00012 2.651162,-3.76345 3.000071,-3.91852 0.348908,-0.15507 0.634378,-0.82117 0.634378,-1.48021 0,-0.65906 0.294073,-1.19828 0.653495,-1.19828 0.359414,0 1.402502,-1.42735 2.317953,-3.17189 0.915459,-1.74454 1.867222,-3.36221 2.115027,-3.59481 1.185138,-1.11246 3.37191,-5.14857 3.37191,-6.22354 0,-0.66441 0.57094,-1.42711 1.268757,-1.69489 0.697817,-0.26778 1.268758,-1.22834 1.268758,-2.1346 0,-0.90626 0.28547,-1.77461 0.634379,-1.92969 0.9192313,-0.40854 3.5948128,-5.7058 3.5948128,-7.1172 0,-0.66011 0.3806272,-1.20021 0.8458384,-1.20021 0.4652111,0 0.8458384,-0.90496 0.8458384,-2.01103 0,-1.10606 0.5709409,-2.48486 1.2687576,-3.064 0.6978167,-0.57913 1.2687576,-1.74516 1.2687576,-2.59116 0,-0.846 0.3806273,-1.77343 0.8458384,-2.06095 0.4652111,-0.28752 0.8481814,-1.16639 0.8510488,-1.95306 0.00254,-0.78666 0.57380827,-2.52053 1.26875757,-3.85304 0.69494929,-1.3325 1.26354723,-3.30833 1.26354723,-4.39073 0,-1.08239 0.3475043,-2.18276 0.772242,-2.44526 0.4247293,-0.26249 1.0287933,-1.99578 1.342354,-3.85176 0.3135608,-1.85597 0.9176247,-3.58926 1.342354,-3.85176 0.4247378,-0.2625 0.772242,-2.35794 0.772242,-4.65654 0,-2.2986 0.3270604,-4.17927 0.7267951,-4.17927 1.925492,0 2.9240296,-13.12526 2.9278781,-38.48565 0.00423,-25.34321 -0.8239904,-36.83914 -2.79476,-38.80991 -0.4729506,-0.47295 -0.8599132,-2.47414 -0.8599132,-4.4471 0,-1.97295 -0.3586354,-3.80883 -0.7969658,-4.07974 -0.4383304,-0.2709 -1.0531957,-2.20118 -1.3663589,-4.28951 -0.3131632,-2.08833 -0.906096,-4.00506 -1.3176302,-4.25939 -0.4115257,-0.25435 -0.7482371,-1.3607 -0.7482371,-2.45858 0,-1.09787 -0.63534305,-3.26401 -1.41187346,-4.81364 -2.61026574,-5.20904 -2.81731854,-5.74954 -2.81731854,-7.35459 0,-0.87977 -0.5709409,-2.07343 -1.2687576,-2.65256 -0.6978167,-0.57914 -1.2687576,-1.95794 -1.2687576,-3.064 0,-1.10607 -0.3806273,-2.01103 -0.8458384,-2.01103 -0.4652112,0 -0.8458384,-0.71465 -0.8458384,-1.58812 0,-0.87345 -0.570941,-2.06194 -1.2687576,-2.64108 -0.6978167,-0.57913 -1.2687577,-1.76762 -1.2687577,-2.64107 0,-0.87347 -0.3806275,-1.58812 -0.8458385,-1.58812 -0.465211,0 -0.845838,-0.77319 -0.845838,-1.71822 0,-0.94503 -0.570941,-1.93731 -1.268758,-2.20509 -0.697817,-0.26778 -1.268757,-1.07632 -1.268757,-1.79675 0,-0.72044 -0.951569,-2.55746 -2.114596,-4.08227 -1.163028,-1.52481 -2.114597,-3.17839 -2.114597,-3.67465 0,-0.49625 -0.380627,-0.90227 -0.845838,-0.90227 -0.465211,0 -0.845838,-0.39688 -0.845838,-0.88196 0,-0.48507 -1.522509,-2.9429 -3.383354,-5.46183 -1.860844,-2.51893 -3.383354,-4.80531 -3.383354,-5.08084 0,-0.27552 -1.332195,-1.87267 -2.960434,-3.54922 -1.628239,-1.67654 -2.960434,-3.38524 -2.960434,-3.79709 0,-0.97403 -23.398682,-24.36682 -24.372952,-24.36682 -0.408481,0 -2.11441,-1.33219 -3.790955,-2.96043 -1.676545,-1.62824 -3.273699,-2.96044 -3.549223,-2.96044 -0.275532,0 -2.561909,-1.52251 -5.080841,-3.38335 -2.518932,-1.86085 -4.976761,-3.38335 -5.461832,-3.38335 -0.48508,0 -0.881956,-0.3194 -0.881956,-0.70976 0,-0.39037 -1.518145,-1.4371 -3.373652,-2.32606 -1.855507,-0.88896 -3.378016,-1.8605 -3.383354,-2.15898 -0.0053,-0.29848 -0.961269,-0.78151 -2.124297,-1.07341 -1.163028,-0.2919 -2.114596,-0.90411 -2.114596,-1.36046 0,-0.45634 -0.578503,-0.82972 -1.285565,-0.82972 -0.707061,0 -2.79295,-0.95157 -4.635304,-2.11459 -1.842355,-1.16303 -3.681241,-2.1146 -4.086406,-2.1146 -0.405165,0 -2.526325,-0.95157 -4.71368,-2.1146 -2.18735,-1.16302 -4.71812,-2.11459 -5.62392,-2.11459 -0.90581,0 -1.64692,-0.36338 -1.64692,-0.80751 0,-0.44413 -1.3364,-1.05822 -2.96978,-1.36465 -1.63338,-0.30642 -3.17835,-0.89461 -3.43327,-1.30708 -0.25493,-0.41248 -1.3491,-0.74995 -2.43149,-0.74995 -1.08239,0 -3.05822,-0.5686 -4.39073,-1.26355 -1.33251,-0.69495 -3.447,-1.26589 -4.69888,-1.26876 -1.25187,-0.003 -2.51138,-0.38584 -2.79889,-0.85105 -0.28752,-0.46521 -2.11797,-0.85794 -4.06766,-0.87274 -1.94969,-0.0148 -4.28374,-0.58573 -5.18677,-1.26875 -1.00159,-0.75757 -3.53852,-1.24186 -6.50533,-1.24186 -2.6749,0 -5.09869,-0.38063 -5.3862,-0.84584 -0.66157,-1.07044 -51.34664,-1.15927 -52.48428,-0.092 -0.44195,0.41462 -3.25577,0.91999 -6.25293,1.12305 -3.11112,0.21078 -5.5912,0.79466 -5.77989,1.36074 -0.19224,0.57673 -2.04945,0.99154 -4.43931,0.99154 -2.25982,0 -4.34402,0.38063 -4.63154,0.84584 -0.28751,0.46521 -1.56942,0.84584 -2.84869,0.84584 -1.27926,0 -3.06477,0.55884 -3.96781,1.24186 -0.90303,0.68302 -2.85645,1.25396 -4.34093,1.26875 -1.48448,0.0148 -2.9162,0.37825 -3.1816,0.80767 -0.2654,0.42942 -1.62005,1.0306 -3.01036,1.33596 -1.39029,0.30536 -2.52781,0.90559 -2.52781,1.33383 0,0.42825 -0.92072,0.77864 -2.04605,0.77864 -2.06916,0 -7.44368,2.42626 -7.96303,3.59481 -0.15508,0.34891 -1.17009,0.63438 -2.25558,0.63438 -1.08549,0 -2.10049,0.28547 -2.25557,0.63438 -0.15506,0.34891 -1.99476,1.51911 -4.08821,2.60044 -2.09345,1.08134 -5.70941,3.07673 -8.03547,4.43419 -2.32605,1.35747 -4.89529,2.70574 -5.70941,2.99616 -0.81412,0.29041 -1.48021,0.77771 -1.48021,1.08287 0,0.30516 -1.3322,1.27228 -2.96044,2.14914 -1.62824,0.87687 -2.96043,1.91499 -2.96043,2.30694 0,0.39196 -0.45129,0.71265 -1.00286,0.71265 -1.00776,0 -9.32491,6.59136 -9.85207,7.80779 -0.15507,0.35783 -0.79003,0.65059 -1.41101,0.65059 -1.27801,0 -24.10512,22.5316 -24.10512,23.79307 0,0.44936 -0.95156,1.6989 -2.11459,2.77676 -1.16303,1.07786 -2.1146,2.18196 -2.1146,2.45355 0,0.27159 -0.95157,1.52057 -2.11459,2.77549 -1.16303,1.25493 -2.1146,2.58713 -2.1146,2.96044 0,0.37331 -0.95157,1.7055 -2.1146,2.96043 -1.16302,1.25493 -2.11459,2.77813 -2.11459,3.3849 0,0.60677 -0.49632,1.40761 -1.10294,1.77963 -0.60661,0.37203 -1.75901,2.0086 -2.56089,3.63684 -0.80188,1.62824 -1.92323,3.70727 -2.49188,4.62007 -3.32626,5.33929 -4.84019,8.14088 -4.84019,8.95696 0,0.50768 -0.57094,1.494 -1.26876,2.19182 -0.69781,0.69782 -1.26876,2.00282 -1.26876,2.90002 0,0.89719 -0.38062,1.63126 -0.84583,1.63126 -0.46522,0 -0.84584,0.95156 -0.84584,2.11459 0,1.16303 -0.36338,2.1146 -0.80751,2.1146 -0.44413,0 -1.05744,1.33219 -1.3629,2.96043 -0.30545,1.62824 -0.89364,2.96044 -1.30708,2.96044 -0.41344,0 -0.76381,1.04672 -0.7786,2.32605 -0.0148,1.27933 -0.58574,3.06491 -1.26876,3.96794 -0.68302,0.90303 -1.24186,2.49823 -1.24186,3.54489 0,1.04666 -0.38063,2.13826 -0.84584,2.42577 -0.46521,0.28752 -0.84584,1.99109 -0.84584,3.78571 0,1.79462 -0.38896,3.3926 -0.86436,3.55107 -1.02666,0.34222 -2.53291,7.55836 -3.05898,14.65502 -0.20691,2.79127 -0.83616,5.99013 -1.39833,7.10858 -1.48872,2.9619 -1.45591,50.9696 0.0352,51.4661 0.70883,0.23603 1.0573,2.26381 1.0573,6.15253 0,3.19025 0.38063,6.0357 0.84584,6.32322 0.46521,0.28752 0.84584,1.99561 0.84584,3.79577 0,1.80016 0.52388,3.7969 1.16418,4.4372 0.6403,0.6403 1.36263,2.66578 1.60519,4.50107 0.69245,5.23944 2.13231,10.04582 3.10675,10.37063 0.48982,0.16327 0.89059,1.22187 0.89059,2.35244 0,1.13057 0.32462,2.71652 0.72138,3.52433 0.39676,0.80781 1.29669,2.80094 1.99983,4.42917 0.70315,1.62824 2.28167,5.05935 3.50781,7.62469 1.22615,2.56534 2.22936,5.13458 2.22936,5.70941 0,0.57484 0.35498,1.04516 0.78884,1.04516 0.43386,0 1.0561,0.85641 1.38276,1.90313 0.32666,1.04673 0.82809,2.09374 1.1143,2.3267 0.49576,0.40353 2.31828,3.60246 4.93906,8.6692 0.66174,1.27933 1.55591,2.32606 1.98705,2.32606 0.43114,0 0.78389,0.62245 0.78389,1.38322 0,0.76078 0.85641,2.19119 1.90314,3.1787 1.04672,0.98751 2.41551,2.78734 3.04175,3.99961 0.62624,1.21228 1.95844,3.11573 2.96044,4.22991 1.00199,1.11417 3.32506,3.92552 5.16237,6.24744 4.26591,5.39111 17.38629,18.49554 22.88043,22.85263 2.32606,1.84466 4.80013,3.95348 5.49795,4.68626 0.69782,0.73279 2.567,2.06654 4.15374,2.9639 1.58675,0.89736 3.83093,2.48796 4.98709,3.53469 1.15615,1.04672 2.61746,1.90314 3.24734,1.90314 0.62988,0 1.14525,0.36277 1.14525,0.80615 0,0.44339 1.42735,1.47567 3.17189,2.29396 1.74454,0.8183 3.67486,1.97804 4.28961,2.5772 0.61474,0.59917 1.62974,1.08939 2.25557,1.08939 0.62582,0 1.26472,0.28547 1.4198,0.63438 0.40854,0.91923 5.70581,3.59481 7.1172,3.59481 0.66012,0 1.20021,0.38063 1.20021,0.84584 0,0.46521 0.91085,0.84584 2.0241,0.84584 1.11326,0 2.24319,0.57094 2.51097,1.26876 0.26778,0.69782 1.07492,1.26876 1.79364,1.26876 1.31647,0 1.92033,0.24091 7.06179,2.81732 1.54964,0.77653 3.48449,1.41187 4.29968,1.41187 0.81518,0 1.72842,0.24627 2.02942,0.54726 1.01389,1.01389 9.44138,3.62646 11.78788,3.65431 1.27933,0.0152 2.32605,0.38493 2.32605,0.82163 0,0.43671 1.80798,1.02716 4.01774,1.3121 2.20975,0.28495 4.67866,0.87921 5.48647,1.32058 0.80781,0.44138 3.68154,0.8025 6.38608,0.8025 2.70453,0 5.27894,0.3484 5.72089,0.77422 1.47981,1.42579 4.90928,1.60187 28.64631,1.47078 18.04507,-0.0996 23.69655,-0.37973 23.96543,-1.1877 z"
               id="path3721"
               inkscape:connector-curvature="0" />
            <path
               style="opacity:1;fill:#2929ff;fill-opacity:0.53333333;stroke:none"
               d="m -199.32231,833.37537 0,-3.83004 26.85537,0.22334 26.85537,0.22335 0,3.38335 0,3.38335 -26.85537,0.22334 -26.85537,0.22335 0,-3.83004 z"
               id="path3723"
               inkscape:connector-curvature="0" />
            <path
               style="opacity:1;fill:#2929ff;fill-opacity:0.53333333;stroke:none"
               d="m -199.32231,852.39485 0,-3.39523 26.85537,0.22334 26.85537,0.22334 0.26251,3.17189 0.26252,3.1719 -27.11789,0 -27.11788,0 0,-3.39524 z"
               id="path3725"
               inkscape:connector-curvature="0" />
            <path
               style="opacity:1;fill:#2929ff;fill-opacity:0.53333333;stroke:none"
               d="m -190.86393,870.16934 0,-3.38335 18.18553,0 18.18552,0 0,3.38335 0,3.38335 -18.18552,0 -18.18553,0 0,-3.38335 z"
               id="path3727"
               inkscape:connector-curvature="0" />
            <path
               style="opacity:1;fill:#2929ff;fill-opacity:0.53333333;stroke:none"
               d="m -171.40965,1007.1396 c 0,-17.66175 -0.32266,-28.57123 -0.87559,-29.60439 -0.72663,-1.35771 -1.80304,-1.63607 -6.32661,-1.63607 l -5.451,0 1.63886,-2.74897 c 0.90137,-1.51194 2.30655,-4.08117 3.12262,-5.70941 0.81606,-1.62824 1.97398,-3.46341 2.57314,-4.07815 0.59917,-0.61475 1.08939,-1.66147 1.08939,-2.32606 0,-0.66459 0.38063,-1.20834 0.84584,-1.20834 0.46521,0 0.84584,-0.74234 0.84584,-1.64965 0,-0.9073 0.4764,-1.95403 1.05868,-2.32605 0.58227,-0.37203 1.62899,-1.81829 2.32605,-3.21393 2.00714,-4.01864 3.03116,-4.82523 4.25452,-3.35117 1.10059,1.32613 4.08269,6.53723 6.43955,11.25285 0.77702,1.55466 1.92374,3.02273 2.54828,3.26239 0.62454,0.23966 1.13553,1.34659 1.13553,2.45984 0,1.11326 0.38062,2.0241 0.84583,2.0241 0.46522,0 0.84584,0.54376 0.84584,1.20835 0,0.66458 0.49708,1.71131 1.10463,2.32605 0.60754,0.61474 1.35685,1.78381 1.66513,2.59793 0.49468,1.3064 -0.0289,1.48022 -4.45822,1.48022 -4.09619,0 -5.17968,0.30074 -5.89432,1.63607 -0.55294,1.03316 -0.8756,11.94264 -0.8756,29.60439 l 0,27.9682 -4.22919,0 -4.2292,0 0,-27.9682 z"
               id="path3731"
               inkscape:connector-curvature="0" />
          </g>
          <g
             style="fill:#2929ff;fill-opacity:0.53333333"
             transform="matrix(-0.18886373,0.68054803,-0.68054803,-0.18886373,850.35503,895.32041)"
             id="g3769">
            <path
               style="opacity:1;fill:#2929ff;fill-opacity:0.53333333;stroke:none"
               d="m 48.396477,424.35621 -2.87585,-2.87585 0,-31.76373 c 0,-21.25129 0.30717,-32.43787 0.92811,-33.80069 1.71885,-3.77246 5.61272,-4.80934 18.06099,-4.80934 l 11.31915,0 4.59264,-5.07503 4.59264,-5.07503 14.41858,0 14.418593,0 4.69858,5.07503 4.69858,5.07503 11.06771,0 c 12.64783,0 16.06728,0.94501 18.1762,5.02321 1.18472,2.29101 1.32415,6.59779 1.11347,34.39324 l -0.24084,31.77429 -2.76232,2.46736 -2.76232,2.46736 -48.284033,0 -48.28403,0 -2.87585,-2.87585 z m 62.182133,-13.38659 c 3.99439,-1.91073 9.63183,-7.21031 11.48776,-10.79928 2.12988,-4.11874 3.0482,-11.92152 2.043,-17.35913 -1.1497,-6.21927 -2.28548,-8.46054 -6.44308,-12.71428 -5.17616,-5.29584 -10.48602,-7.51486 -18.026833,-7.53352 -5.38347,-0.0133 -7.11601,0.36747 -11.29726,2.48299 -6.67105,3.37525 -10.82914,8.28344 -13.09221,15.45402 -2.285,7.24005 -2.27165,8.00015 0.27331,15.56606 2.02561,6.02195 3.87988,8.4097 10.90984,14.04865 4.63174,3.71525 17.232793,4.1612 24.145473,0.85449 z"
               id="path3752"
               inkscape:connector-curvature="0" />
            <path
               style="opacity:1;fill:#2929ff;fill-opacity:0.53333333;stroke:none"
               d="m 92.362417,401.48764 c -1.45187,-0.6319 -3.73563,-2.58566 -5.07503,-4.34171 -2.15302,-2.82276 -2.43527,-3.88666 -2.43527,-9.17951 0,-5.53395 0.21578,-6.25507 2.85326,-9.53514 3.1772,-3.95129 6.19151,-5.33288 11.63509,-5.33288 5.442323,0 9.673593,2.07137 12.578483,6.15765 2.14909,3.0231 2.53751,4.35583 2.53751,8.7065 0,6.16543 -2.46767,10.55533 -7.36739,13.10632 -3.69767,1.92516 -10.801363,2.12716 -14.726653,0.41877 z"
               id="path3754"
               inkscape:connector-curvature="0" />
            <path
               style="opacity:1;fill:#2929ff;fill-opacity:0.53333333;stroke:none"
               d="m 84.429197,475.41135 c -15.22699,-3.52221 -21.4403,-5.85163 -32.85882,-12.31905 -5.01252,-2.83907 -14.79469,-10.90137 -19.79921,-16.31814 -11.85913,-12.83606 -20.7008,-30.76563 -23.4118899,-47.47577 -1.72059,-10.60506 -0.79318,-32.41217 1.59985,-37.61881 0.4276299,-0.93042 1.3994599,-3.97544 2.1596099,-6.7667 5.43315,-19.95046 24.54333,-42.23946 45.26603,-52.79566 36.84936,-18.77118 80.782083,-10.99324 109.332953,19.35652 10.95285,11.64294 17.36816,23.08206 21.87785,39.01027 2.57999,9.11253 2.73328,10.43668 2.73328,23.61029 0,13.14527 -0.15725,14.51151 -2.70586,23.50945 -2.81997,9.95598 -7.45735,20.7208 -10.85852,25.2061 -1.09159,1.43955 -1.98472,2.89417 -1.98472,3.2325 0,1.39096 -12.23148,14.77908 -17.45207,19.10238 -10.5485,8.73547 -22.78957,14.85375 -37.08615,18.53625 -9.12538,2.3505 -11.30969,2.60005 -21.991793,2.51244 -6.52306,-0.0535 -13.1923,-0.40543 -14.82054,-0.78207 z m 31.722043,-4.84682 c 0.92872,-0.50914 4.31539,-1.5412 7.52593,-2.29347 12.73541,-2.98408 26.6918,-11.23729 37.79659,-22.35127 11.79228,-11.80205 17.95185,-22.54579 22.89185,-39.92886 2.51575,-8.85253 2.73755,-10.62446 2.74084,-21.89663 0.003,-8.98038 -0.37111,-13.51042 -1.39569,-16.91677 -0.7696,-2.55866 -1.98498,-6.79814 -2.70084,-9.42106 -0.71585,-2.62292 -2.44517,-7.07394 -3.84294,-9.89116 -1.39777,-2.81721 -2.54139,-5.35106 -2.54139,-5.63077 0,-0.2797 -1.97738,-3.44123 -4.39418,-7.0256 -24.4742,-36.29796 -73.141163,-49.12781 -111.908603,-29.50197 -20.73009,10.49451 -38.31905,30.86391 -43.99364,50.9481 -0.78079,2.76348 -1.97718,6.72269 -2.65863,8.79823 -2.58658,7.87807 -2.22033,34.50776 0.54536,39.65419 0.41426,0.77084 1.52032,4.06592 2.45793,7.3224 7.25494,25.19767 33.01167,49.76905 58.53624,55.84236 3.44228,0.81905 7.01995,1.80296 7.95037,2.18647 2.98864,1.23186 6.51132,1.4622 19.034473,1.24464 6.86088,-0.1192 13.01198,-0.62112 13.95633,-1.13883 z"
               id="path3756"
               inkscape:connector-curvature="0" />
            <path
               style="opacity:1;fill:#2929ff;fill-opacity:0.53333333;stroke:none"
               d="m -74.433143,468.97622 c 0.29202,-2.44345 2.00992,-3.52706 15.06981,-9.50568 3.9543,-1.81022 10.04433,-4.62605 13.53342,-6.25742 7.20593,-3.36921 15.29224,-7.10116 24.52931,-11.32063 3.48908,-1.5938 6.91473,-3.26155 7.61255,-3.70612 0.69781,-0.44456 2.16386,-1.1933 3.25787,-1.66386 1.4331601,-0.61644 1.8242101,-1.26601 1.3990801,-2.32404 -0.32453,-0.80765 -0.8055,-1.99877 -1.0688201,-2.64693 -0.39819,-0.98012 0.7174401,-1.07412 6.6284901,-0.55849 3.90898999,0.34099 7.38292,0.79035 7.71985,0.99858 0.54749,0.33836 -2.14237,4.45279 -6.84195,10.46552 l -1.65278,2.1146 -0.89366,-2.32606 c -0.49152,-1.27933 -1.08131,-2.32605 -1.31065,-2.32605 -0.22935,0 -5.1990101,2.28376 -11.0437101,5.07503 -5.84469,2.79126 -10.77458,5.07503 -10.95531,5.07503 -0.18072,0 -4.641,2.05619 -9.91173,4.56932 -5.27073,2.51313 -14.34098,6.75012 -20.15612,9.41554 -5.81514,2.66542 -11.32377,5.36706 -12.2414,6.00366 -2.6456,1.83534 -3.97609,1.44354 -3.67425,-1.082 z"
               id="path3760"
               inkscape:connector-curvature="0" />
          </g>
        </g>
        <path
           transform="translate(-581.93682,216.53463)"
           inkscape:connector-curvature="0"
           id="path3856"
           d="m 1493.9265,512.14357 c 11.8714,-53.85053 11.9001,-54.9795 1.398,-54.9795 -12.2041,0 -22.1236,12.37441 -22.1236,27.59862 0,9.83019 -1.1444,12.3501 -4.9463,10.8912 -7.7811,-2.98589 -9.3231,-13.26218 -3.9278,-26.17502 8.5418,-20.44339 24.8003,-25.11335 80.8894,-23.23404 21.8096,0.73075 22.7757,1.10728 19.3352,7.53589 -2.9432,5.49943 -7.0841,6.7667 -22.1108,6.7667 -10.1692,0 -18.4894,0.53063 -18.4894,1.17918 0,1.20764 -15.3966,72.2213 -18.6333,85.94218 -1.3382,5.67301 -4.2296,7.61255 -11.3484,7.61255 l -9.5527,0 9.5097,-43.13776 z"
           style="opacity:1;fill:#2929ff;fill-opacity:0.53333327;stroke:none" />
        <path
           transform="translate(-581.93682,216.53463)"
           inkscape:connector-curvature="0"
           id="path3858"
           d="m 1344.7362,551.27686 c 0.057,-2.44965 4.5238,-24.9812 9.9272,-50.0701 5.4035,-25.0889 9.0377,-46.40297 8.076,-47.36462 -0.9616,-0.96164 -6.1901,3.22269 -11.6189,9.29851 -6.8663,7.68477 -9.8704,14.60246 -9.8704,22.72912 0,8.71195 -1.2238,11.21254 -4.8135,9.83508 -12.1153,-4.64909 -6.6116,-29.11007 8.8257,-39.22494 10.2522,-6.71753 35.9132,-14.65189 38.6229,-11.9422 1.0951,1.09517 -3.1786,26.07987 -9.4973,55.52157 -11.228,52.31679 -11.6955,53.55464 -20.6215,54.60094 -5.8737,0.68852 -9.0963,-0.51887 -9.0302,-3.38336 z"
           style="opacity:1;fill:#2929ff;fill-opacity:0.53333327;stroke:none" />
        <path
           transform="translate(-581.93682,216.53463)"
           inkscape:connector-curvature="0"
           id="path3860"
           d="m 1396.1804,555.15769 c -11.6176,-4.66728 -14.7863,-16.94314 -9.5671,-37.06359 5.147,-19.84202 15.6509,-32.60742 29.297,-35.60461 11.0449,-2.42587 23.457,3.09045 23.457,10.42502 0,2.7842 2.2619,5.93014 5.0264,6.99099 4.4464,1.70621 4.4464,2.75702 0,9.10502 -2.7645,3.94691 -5.0264,9.95806 -5.0264,13.3581 0,11.62542 -10.5568,26.66125 -22.1078,31.48756 -6.3296,2.64468 -11.9379,4.71199 -12.4629,4.59404 -0.5249,-0.11795 -4.4023,-1.59959 -8.6162,-3.29253 z m 27.6831,-19.63747 c 4.8834,-9.44346 8.2986,-42.70559 4.7492,-46.25496 -4.0745,-4.07455 -12.4096,2.88841 -17.5,14.61921 -5.2687,12.14171 -7.1818,23.21105 -6.1051,35.32593 0.8459,9.51865 13.2841,7.08444 18.8559,-3.69018 z"
           style="opacity:1;fill:#2929ff;fill-opacity:0.53333327;stroke:none" />
        <path
           transform="translate(-581.93682,216.53463)"
           inkscape:connector-curvature="0"
           id="path3862"
           d="m 1033.4799,552.74381 c 0.063,-1.39563 4.3434,-22.33013 9.5114,-46.52111 9.0757,-42.48211 9.707,-44.02014 18.4935,-45.05417 10.6772,-1.25653 10.7751,-0.54269 4.3238,31.52075 -13.1285,65.25028 -12.1618,62.59205 -22.7607,62.59205 -5.3257,0 -9.6312,-1.14189 -9.568,-2.53752 z"
           style="opacity:1;fill:#2929ff;fill-opacity:0.53333327;stroke:none" />
        <path
           transform="translate(-581.93682,216.53463)"
           inkscape:connector-curvature="0"
           id="path3864"
           d="m 1122.5574,549.36046 c 6.3826,-22.47699 19.3539,-93.04397 17.4518,-94.94133 -3.9425,-3.9326 -18.244,15.60414 -20.5945,28.13344 -2.5376,13.52674 -7.1714,15.28669 -11.2462,4.27141 l -2.7955,-7.55698 -2.3514,7.40838 c -3.1599,9.95606 -21.0704,24.62235 -30.0689,24.62235 l -7.2599,0 7.5389,-5.28041 c 16.112,-11.28531 23.0508,-39.58593 12.3335,-50.30326 -2.9929,-2.99296 -11.0126,-5.3167 -18.3488,-5.3167 -17.9019,0 -33.1507,13.03417 -35.985,30.75883 -2.6927,16.83929 -11.3999,18.16335 -11.3999,1.73352 0,-20.83108 35.8949,-43.0595 60.7263,-37.60561 12.9336,2.8407 23.8575,13.82798 23.8575,23.99597 0,8.17737 0.437,8.01094 12.6876,-4.83256 7.5787,-7.94551 18.137,-14.80707 26.221,-17.04036 21.7253,-6.00185 21.6478,-6.08281 16.6162,17.36947 -2.4952,11.63027 -4.5902,22.28784 -4.6556,23.68347 -0.065,1.39564 5.1512,2.53752 11.5925,2.53752 12.4892,0 13.3171,-1.47461 20.4213,-36.37105 1.9244,-9.45277 3.6572,-10.9959 12.3478,-10.9959 8.0366,0 9.7516,1.21386 8.3651,5.92087 -0.9593,3.25647 -5.7003,24.95223 -10.5357,48.21278 -12.82,61.67099 -11.1875,57.51702 -22.6045,57.51702 -7.9624,0 -9.6442,-1.21176 -8.2173,-5.92087 3.9615,-13.0749 8.6514,-36.82043 8.7293,-44.19796 0.072,-6.77214 -1.364,-7.68404 -10.6526,-6.76671 -11.8117,1.1665 -13.0501,3.51464 -19.7404,37.43125 -3.6496,18.50146 -4.3341,19.45429 -13.9757,19.45429 -8.0403,0 -9.7903,-1.22518 -8.4569,-5.92087 z"
           style="opacity:1;fill:#2929ff;fill-opacity:0.53333327;stroke:none" />
        <path
           transform="translate(-581.93682,216.53463)"
           inkscape:connector-curvature="0"
           id="path3868"
           d="m 1222.9938,552.74381 c 0.089,-1.39563 4.384,-22.33013 9.5454,-46.52111 9.0532,-42.43229 9.7039,-44.02136 18.4473,-45.05417 10.6393,-1.25675 10.7384,-0.52869 4.2899,31.52075 -13.1285,65.25028 -12.1618,62.59205 -22.7607,62.59205 -5.3257,0 -9.6105,-1.14189 -9.5219,-2.53752 z"
           style="opacity:1;fill:#2929ff;fill-opacity:0.53333327;stroke:none" />
        <path
           transform="translate(-581.93682,216.53463)"
           inkscape:connector-curvature="0"
           id="path3870"
           d="m 1262.6995,506.01732 c 16.112,-11.28531 23.0508,-39.58593 12.3335,-50.30326 -2.9929,-2.99296 -11.0126,-5.3167 -18.3488,-5.3167 -17.9019,0 -33.1507,13.03417 -35.985,30.75883 -2.6927,16.83929 -11.3999,18.16335 -11.3999,1.73352 0,-23.09163 37.9383,-44.16871 64.9407,-36.0786 14.7436,4.41731 19.6431,11.66993 19.6431,29.07732 0,9.59366 -2.6052,15.00771 -11.5034,23.9059 -6.4783,6.47828 -14.936,11.5034 -19.3612,11.5034 l -7.8579,0 7.5389,-5.28041 z"
           style="opacity:1;fill:#2929ff;fill-opacity:0.53333327;stroke:none" />
      </g>
    </g>
  </g>
</svg>
